<svg id="filled_outline" height="512" viewBox="0 0 512 512" width="512" xmlns="http://www.w3.org/2000/svg" data-name="filled outline"><path d="m432 432v-216a16 16 0 0 0 -16-16h-320a16 16 0 0 0 -16 16v216z" fill="#548aff"/><rect fill="#91c0ff" height="40" rx="20" width="176" x="168" y="304"/><path d="m192 144h128v112h-128z" fill="#ffc431"/><path d="m24 416h464a0 0 0 0 1 0 0v16a16 16 0 0 1 -16 16h-432a16 16 0 0 1 -16-16v-16a0 0 0 0 1 0 0z" fill="#e0edff"/><path d="m256 64a47.99987 47.99987 0 0 0 -48 48v32h32v-32a16 16 0 0 1 32 0v32h32v-32a47.99987 47.99987 0 0 0 -48-48z" fill="#e0edff"/><path d="m488 408h-48v-192a24.0275 24.0275 0 0 0 -24-24h-72v16h72a8.00917 8.00917 0 0 1 8 8v192h-336v-192a8.00917 8.00917 0 0 1 8-8h72v-16h-72a24.0275 24.0275 0 0 0 -24 24v192h-48a8.00039 8.00039 0 0 0 -8 8v16a24.0275 24.0275 0 0 0 24 24h432a24.0275 24.0275 0 0 0 24-24v-16a8.00039 8.00039 0 0 0 -8-8zm-8 24a8.00917 8.00917 0 0 1 -8 8h-432a8.00917 8.00917 0 0 1 -8-8v-8h188.68555l5.65722 5.65723a8.00235 8.00235 0 0 0 5.65723 2.34277h48a8.00235 8.00235 0 0 0 5.65723-2.34277l5.65722-5.65723h188.68555z"/><path d="m160 324a28.03146 28.03146 0 0 0 28 28h136a28 28 0 0 0 0-56h-136a28.03146 28.03146 0 0 0 -28 28zm176 0a12.01312 12.01312 0 0 1 -12 12h-20v-24h20a12.01312 12.01312 0 0 1 12 12zm-148-12h100v24h-100a12 12 0 0 1 0-24z"/><path d="m184 368h24v16h-24z"/><path d="m304 368h24v16h-24z"/><path d="m224 368h64v16h-64z"/><path d="m256 56a56.0629 56.0629 0 0 0 -56 56v24h-8a8.00039 8.00039 0 0 0 -8 8v112a8.00039 8.00039 0 0 0 8 8h128a8.00039 8.00039 0 0 0 8-8v-112a8.00039 8.00039 0 0 0 -8-8h-8v-24a56.0629 56.0629 0 0 0 -56-56zm0 16a40.04584 40.04584 0 0 1 40 40v24h-16v-24a23.99787 23.99787 0 0 0 -46.62378-8h-16.57129a40.06838 40.06838 0 0 1 39.19507-32zm-8 64v-24a8 8 0 0 1 16 0v24zm-32-16h16v16h-16zm96 128h-112v-96h112z"/><path d="m256 184a15.99656 15.99656 0 0 0 -13.835 8h-10.165v16h10.165a15.96288 15.96288 0 0 0 27.66992 0h10.16508v-16h-10.165a15.99656 15.99656 0 0 0 -13.835-8z"/></svg>